<svg height="413pt" viewBox="-26 0 413 413.41952" width="413pt" xmlns="http://www.w3.org/2000/svg"><path d="m329.777344 406.59375h-297.324219c-14.035156 0-25.417969-11.378906-25.417969-25.414062v-171.378907c0-93.433593 62.453125-175.335937 152.550782-200.070312h.003906c14.089844-3.867188 28.964844-3.867188 43.054687 0h.003907c90.09375 24.734375 152.546874 106.636719 152.546874 200.070312v171.378907c0 14.035156-11.378906 25.414062-25.417968 25.414062zm0 0" fill="#aca3d3"/><path d="m329.777344 406.59375v-6.824219h-297.324219c-10.261719-.023437-18.570313-8.328125-18.589844-18.589843v-171.378907c0-90.355469 60.398438-169.570312 147.53125-193.488281l-1.808593-6.582031v6.828125h.003906c.640625 0 1.191406-.078125 1.808594-.246094 6.453124-1.773438 13.085937-2.660156 19.71875-2.660156 6.632812 0 13.265624.886718 19.714843 2.660156.617188.167969 1.171875.246094 1.8125.246094v-6.828125l-1.804687 6.582031c87.132812 23.917969 147.53125 103.132812 147.53125 193.488281v171.378907c-.019532 10.261718-8.328125 18.566406-18.59375 18.589843v13.648438c17.8125 0 32.242187-14.429688 32.246094-32.238281v-171.378907c-.003907-96.507812-64.507813-181.105469-157.570313-206.652343-.617187-.171876-1.167969-.246094-1.808594-.246094v6.828125l1.808594-6.582031c-7.640625-2.101563-15.488281-3.148438-23.339844-3.148438-7.847656 0-15.695312 1.046875-23.332031 3.148438l1.804688 6.582031v-6.828125h-.003907c-.636719 0-1.191406.074218-1.804687.246094-93.0625 25.546874-157.566406 110.144531-157.566406 206.652343v171.378907c.003906 17.808593 14.433593 32.238281 32.242187 32.238281h297.328125v-6.824219zm0 0" fill="#54596e"/><path d="m116.261719 150.59375c0 13.195312-10.695313 23.894531-23.890625 23.894531-13.195313 0-23.894532-10.699219-23.894532-23.894531s10.699219-23.890625 23.894532-23.890625c13.195312 0 23.890625 10.695313 23.890625 23.890625zm0 0" fill="#54596e"/><path d="m95.78125 143.769531c0 5.652344-4.582031 10.238281-10.238281 10.238281s-10.238281-4.585937-10.238281-10.238281c0-5.65625 4.582031-10.242187 10.238281-10.242187s10.238281 4.585937 10.238281 10.242187zm0 0" fill="#fff"/><path d="m286.929688 150.59375c0 13.195312-10.699219 23.894531-23.894532 23.894531-13.195312 0-23.890625-10.699219-23.890625-23.894531s10.695313-23.890625 23.890625-23.890625c13.195313 0 23.894532 10.695313 23.894532 23.890625zm0 0" fill="#54596e"/><path d="m266.449219 143.769531c0 5.652344-4.585938 10.238281-10.238281 10.238281-5.65625 0-10.242188-4.585937-10.242188-10.238281 0-5.65625 4.585938-10.242187 10.242188-10.242187 5.652343 0 10.238281 4.585937 10.238281 10.242187zm0 0" fill="#fff"/><path d="m205.007812 119.875c0 15.082031-12.222656 27.304688-27.304687 27.304688s-27.308594-12.222657-27.308594-27.304688 12.226563-27.308594 27.308594-27.308594 27.304687 12.226563 27.304687 27.308594zm0 0" fill="#54596e"/><path d="m184.53125 109.632812c0 5.65625-4.585938 10.242188-10.242188 10.242188s-10.238281-4.585938-10.238281-10.242188c0-5.652343 4.582031-10.238281 10.238281-10.238281s10.242188 4.585938 10.242188 10.238281zm0 0" fill="#fff"/><g fill="#54596e"><path d="m157.222656 181.316406v6.824219c0 3.769531 3.058594 6.828125 6.828125 6.828125s6.824219-3.058594 6.824219-6.828125v-6.824219c0-3.773437-3.054688-6.828125-6.824219-6.828125s-6.828125 3.054688-6.828125 6.828125"/><path d="m184.53125 181.316406v6.824219c0 3.769531 3.054688 6.828125 6.824219 6.828125s6.828125-3.058594 6.828125-6.828125v-6.824219c0-3.773437-3.058594-6.828125-6.828125-6.828125s-6.824219 3.054688-6.824219 6.828125"/><path d="m295.917969 379.289062h-236.429688c-10.386719 0-19.074219-7.898437-20.054687-18.238281l-9.816406-103.066406c-1.128907-11.828125 8.175781-22.058594 20.054687-22.058594h256.058594c11.882812 0 21.183593 10.230469 20.058593 22.058594l-9.816406 103.066406c-.984375 10.339844-9.667968 18.238281-20.054687 18.238281zm0 0"/><path d="m295.917969 379.289062v-6.828124h-236.429688c-6.863281.003906-12.613281-5.226563-13.261719-12.054688l-9.816406-103.066406-.058594-1.300782c.011719-7.226562 5.902344-13.273437 13.320313-13.285156h256.058594c7.417969.011719 13.308593 6.0625 13.324219 13.289063l-.0625 1.300781-9.816407 103.058594c-.644531 6.835937-6.394531 12.0625-13.261719 12.058594v13.652343c13.910157-.003906 25.53125-10.566406 26.855469-24.417969l9.816407-103.0625c.082031-.875.121093-1.738281.121093-2.59375-.003906-14.738281-11.941406-26.921874-26.976562-26.941406h-256.058594c-15.03125.015625-26.972656 12.199219-26.976563 26.941406 0 .859376.042969 1.722657.125 2.59375l9.816407 103.066407c1.320312 13.84375 12.945312 24.410156 26.851562 24.414062h236.425781v-6.824219zm0 0"/></g><path d="m300.582031 379.289062c0-67.867187-55.015625-122.882812-122.878906-122.882812s-122.878906 55.015625-122.878906 122.882812zm0 0" fill="#fff35f"/><path d="m300.582031 379.289062h6.828125c-.003906-71.640624-58.070312-129.703124-129.707031-129.707031-71.636719.003907-129.703125 58.066407-129.707031 129.707031 0 1.820313.710937 3.535157 2 4.824219 1.289062 1.292969 3.003906 2 4.828125 2h245.757812c1.824219 0 3.539063-.707031 4.828125-2 1.289063-1.289062 2-3.003906 2-4.824219h-6.828125v-6.828124h-245.757812v6.828124h6.824219c.003906-32.070312 12.980468-61.042968 33.992187-82.066406 21.023437-21.011718 49.996094-33.984375 82.0625-33.988281 32.066406.003906 61.039063 12.976563 82.0625 33.988281 21.011719 21.023438 33.988281 49.996094 33.992187 82.066406h6.824219v-6.828124zm0 0" fill="#54596e"/><path d="m245.96875 304.195312c-.003906-13.199218-10.691406-23.890624-23.890625-23.894531-13.199219.003907-23.890625 10.695313-23.894531 23.894531 0 3.769532 3.054687 6.824219 6.824218 6.824219 3.773438 0 6.828126-3.054687 6.828126-6.824219.011718-5.652343 4.585937-10.230468 10.242187-10.242187 5.652344.011719 10.226563 4.585937 10.238281 10.242187 0 3.769532 3.058594 6.824219 6.828125 6.824219s6.824219-3.054687 6.824219-6.824219zm0 0" fill="#54596e"/><path d="m164.050781 304.195312c-.007812-13.199218-10.695312-23.890624-23.894531-23.894531-13.199219.003907-23.886719 10.695313-23.894531 23.894531 0 3.769532 3.058593 6.824219 6.828125 6.824219 3.769531 0 6.828125-3.054687 6.828125-6.824219.007812-5.652343 4.585937-10.230468 10.238281-10.242187 5.65625.011719 10.230469 4.585937 10.238281 10.242187 0 3.769532 3.058594 6.824219 6.828125 6.824219 3.769532 0 6.828125-3.054687 6.828125-6.824219zm0 0" fill="#54596e"/><path d="m119.28125 345.953125c6.445312 6.222656 15.0625 11.058594 25.070312 14.433594 10.019532 3.367187 21.460938 5.242187 33.625 5.246093 12.3125-.003906 23.882813-1.925781 33.984376-5.367187 10.097656-3.453125 18.757812-8.398437 25.171874-14.769531 2.671876-2.660156 2.679688-6.984375.019532-9.652344-2.660156-2.671875-6.984375-2.675781-9.652344-.015625-4.476562 4.480469-11.390625 8.609375-19.945312 11.511719-8.546876 2.917968-18.699219 4.640625-29.578126 4.640625-10.75 0-20.789062-1.679688-29.269531-4.535157-8.488281-2.84375-15.390625-6.886718-19.925781-11.300781-2.710938-2.621093-7.03125-2.550781-9.65625.15625-2.621094 2.707031-2.554688 7.03125.15625 9.652344zm0 0" fill="#54596e"/><path d="m71.890625 273.472656 17.738281-30.71875h-35.476562zm0 0" fill="#fff"/><path d="m106.023438 273.472656 17.738281-30.71875h-35.476563zm0 0" fill="#fff"/><path d="m249.382812 273.472656 17.738282-30.71875h-35.476563zm0 0" fill="#fff"/><path d="m283.515625 273.472656 17.738281-30.71875h-35.476562zm0 0" fill="#fff"/></svg>